<svg id="visual" viewBox="0 0 960 540" width="960" height="540" xmlns="http://www.w3.org/2000/svg" xmlns:xlink="http://www.w3.org/1999/xlink" version="1.1"><rect x="0" y="0" width="960" height="540" fill="#000000"></rect><g fill="none" stroke="#161616" stroke-width="2"><circle r="11" cx="868" cy="341"></circle><circle r="-1" cx="797" cy="155"></circle><circle r="6" cx="373" cy="444"></circle><circle r="0" cx="304" cy="255"></circle><circle r="-2" cx="85" cy="510"></circle><circle r="0" cx="159" cy="374"></circle><circle r="-2" cx="459" cy="82"></circle><circle r="3" cx="125" cy="334"></circle><circle r="-1" cx="866" cy="193"></circle><circle r="2" cx="471" cy="177"></circle><circle r="2" cx="729" cy="17"></circle><circle r="-1" cx="911" cy="264"></circle><circle r="-2" cx="909" cy="501"></circle><circle r="9" cx="99" cy="79"></circle><circle r="8" cx="711" cy="185"></circle><circle r="5" cx="776" cy="322"></circle><circle r="2" cx="749" cy="69"></circle><circle r="8" cx="823" cy="495"></circle><circle r="3" cx="582" cy="152"></circle><circle r="8" cx="620" cy="217"></circle><circle r="-1" cx="244" cy="98"></circle><circle r="-1" cx="552" cy="342"></circle><circle r="1" cx="245" cy="272"></circle><circle r="9" cx="254" cy="406"></circle><circle r="3" cx="388" cy="189"></circle><circle r="2" cx="651" cy="488"></circle><circle r="5" cx="287" cy="487"></circle><circle r="1" cx="786" cy="348"></circle><circle r="-2" cx="298" cy="192"></circle><circle r="8" cx="445" cy="170"></circle><circle r="9" cx="481" cy="397"></circle><circle r="0" cx="49" cy="353"></circle><circle r="3" cx="41" cy="489"></circle><circle r="1" cx="288" cy="356"></circle><circle r="3" cx="241" cy="451"></circle><circle r="4" cx="772" cy="229"></circle><circle r="2" cx="26" cy="94"></circle><circle r="5" cx="154" cy="180"></circle><circle r="-2" cx="278" cy="116"></circle><circle r="7" cx="69" cy="408"></circle><circle r="0" cx="252" cy="478"></circle><circle r="3" cx="415" cy="57"></circle><circle r="1" cx="199" cy="270"></circle><circle r="2" cx="30" cy="521"></circle><circle r="7" cx="340" cy="366"></circle><circle r="2" cx="709" cy="359"></circle><circle r="-2" cx="467" cy="437"></circle><circle r="-1" cx="618" cy="445"></circle><circle r="6" cx="516" cy="133"></circle><circle r="6" cx="759" cy="161"></circle><circle r="7" cx="207" cy="55"></circle><circle r="2" cx="316" cy="393"></circle><circle r="-2" cx="374" cy="246"></circle><circle r="7" cx="857" cy="102"></circle><circle r="8" cx="198" cy="521"></circle><circle r="5" cx="431" cy="489"></circle><circle r="6" cx="563" cy="319"></circle><circle r="-2" cx="291" cy="227"></circle><circle r="6" cx="225" cy="180"></circle><circle r="-2" cx="820" cy="282"></circle><circle r="6" cx="128" cy="43"></circle><circle r="4" cx="665" cy="333"></circle><circle r="5" cx="835" cy="83"></circle><circle r="6" cx="697" cy="401"></circle><circle r="4" cx="733" cy="170"></circle><circle r="8" cx="597" cy="231"></circle><circle r="0" cx="329" cy="83"></circle><circle r="4" cx="664" cy="55"></circle><circle r="7" cx="937" cy="154"></circle><circle r="1" cx="679" cy="428"></circle><circle r="5" cx="564" cy="94"></circle><circle r="-1" cx="901" cy="425"></circle><circle r="-2" cx="34" cy="312"></circle><circle r="9" cx="268" cy="39"></circle><circle r="1" cx="363" cy="292"></circle><circle r="2" cx="936" cy="308"></circle><circle r="0" cx="765" cy="19"></circle><circle r="7" cx="336" cy="461"></circle><circle r="3" cx="182" cy="487"></circle><circle r="0" cx="219" cy="116"></circle><circle r="5" cx="858" cy="489"></circle><circle r="3" cx="888" cy="457"></circle><circle r="7" cx="479" cy="510"></circle><circle r="2" cx="57" cy="234"></circle><circle r="7" cx="838" cy="155"></circle><circle r="4" cx="192" cy="226"></circle><circle r="2" cx="95" cy="305"></circle><circle r="6" cx="48" cy="183"></circle><circle r="7" cx="231" cy="336"></circle><circle r="4" cx="731" cy="138"></circle><circle r="-2" cx="610" cy="360"></circle><circle r="5" cx="136" cy="391"></circle><circle r="4" cx="130" cy="134"></circle><circle r="2" cx="503" cy="175"></circle><circle r="2" cx="507" cy="211"></circle><circle r="8" cx="593" cy="200"></circle><circle r="9" cx="508" cy="513"></circle><circle r="0" cx="136" cy="522"></circle><circle r="1" cx="625" cy="252"></circle><circle r="7" cx="501" cy="418"></circle><circle r="3" cx="668" cy="219"></circle><circle r="4" cx="587" cy="419"></circle><circle r="8" cx="894" cy="285"></circle><circle r="6" cx="523" cy="443"></circle><circle r="6" cx="573" cy="42"></circle><circle r="7" cx="507" cy="310"></circle><circle r="4" cx="766" cy="128"></circle><circle r="3" cx="148" cy="276"></circle><circle r="5" cx="419" cy="204"></circle><circle r="-2" cx="361" cy="115"></circle><circle r="-1" cx="396" cy="428"></circle><circle r="6" cx="828" cy="35"></circle><circle r="0" cx="450" cy="234"></circle><circle r="1" cx="745" cy="498"></circle><circle r="2" cx="469" cy="284"></circle><circle r="2" cx="643" cy="135"></circle><circle r="2" cx="337" cy="515"></circle><circle r="1" cx="668" cy="248"></circle><circle r="1" cx="172" cy="106"></circle><circle r="9" cx="356" cy="216"></circle><circle r="4" cx="707" cy="509"></circle><circle r="0" cx="716" cy="273"></circle><circle r="8" cx="563" cy="215"></circle><circle r="-1" cx="392" cy="108"></circle><circle r="1" cx="399" cy="466"></circle><circle r="8" cx="941" cy="199"></circle><circle r="-2" cx="735" cy="45"></circle><circle r="6" cx="834" cy="415"></circle><circle r="8" cx="909" cy="16"></circle><circle r="1" cx="413" cy="339"></circle><circle r="1" cx="123" cy="203"></circle><circle r="1" cx="163" cy="456"></circle><circle r="7" cx="339" cy="195"></circle><circle r="1" cx="863" cy="395"></circle><circle r="2" cx="706" cy="467"></circle><circle r="-2" cx="390" cy="35"></circle><circle r="5" cx="518" cy="80"></circle><circle r="4" cx="878" cy="42"></circle><circle r="1" cx="399" cy="362"></circle><circle r="0" cx="187" cy="310"></circle><circle r="7" cx="439" cy="345"></circle><circle r="8" cx="829" cy="450"></circle><circle r="9" cx="667" cy="82"></circle><circle r="5" cx="528" cy="46"></circle><circle r="2" cx="28" cy="244"></circle><circle r="4" cx="45" cy="68"></circle><circle r="-2" cx="39" cy="395"></circle><circle r="6" cx="585" cy="275"></circle><circle r="-2" cx="641" cy="424"></circle><circle r="7" cx="755" cy="367"></circle><circle r="6" cx="266" cy="239"></circle><circle r="4" cx="680" cy="128"></circle><circle r="7" cx="615" cy="87"></circle><circle r="-2" cx="257" cy="336"></circle><circle r="-1" cx="766" cy="403"></circle><circle r="5" cx="403" cy="141"></circle><circle r="5" cx="738" cy="312"></circle><circle r="1" cx="195" cy="154"></circle><circle r="-1" cx="526" cy="13"></circle><circle r="4" cx="863" cy="426"></circle><circle r="9" cx="215" cy="242"></circle><circle r="9" cx="870" cy="513"></circle><circle r="2" cx="681" cy="371"></circle><circle r="-1" cx="399" cy="517"></circle><circle r="-1" cx="45" cy="149"></circle><circle r="7" cx="488" cy="105"></circle><circle r="5" cx="617" cy="512"></circle><circle r="5" cx="21" cy="168"></circle><circle r="7" cx="610" cy="163"></circle><circle r="7" cx="940" cy="24"></circle><circle r="4" cx="495" cy="349"></circle><circle r="9" cx="358" cy="472"></circle><circle r="2" cx="704" cy="41"></circle><circle r="0" cx="785" cy="179"></circle><circle r="7" cx="761" cy="519"></circle><circle r="-2" cx="27" cy="366"></circle><circle r="9" cx="290" cy="434"></circle><circle r="9" cx="748" cy="339"></circle><circle r="5" cx="19" cy="334"></circle><circle r="-2" cx="501" cy="245"></circle><circle r="7" cx="937" cy="388"></circle><circle r="0" cx="291" cy="521"></circle><circle r="2" cx="632" cy="306"></circle><circle r="-1" cx="433" cy="103"></circle><circle r="-2" cx="412" cy="238"></circle><circle r="8" cx="109" cy="494"></circle><circle r="-2" cx="98" cy="139"></circle><circle r="3" cx="784" cy="40"></circle><circle r="8" cx="141" cy="481"></circle><circle r="3" cx="204" cy="409"></circle><circle r="8" cx="432" cy="385"></circle><circle r="7" cx="113" cy="409"></circle><circle r="8" cx="907" cy="43"></circle><circle r="2" cx="791" cy="461"></circle><circle r="1" cx="903" cy="128"></circle><circle r="9" cx="103" cy="33"></circle><circle r="3" cx="867" cy="137"></circle><circle r="5" cx="164" cy="345"></circle><circle r="6" cx="172" cy="257"></circle><circle r="-2" cx="23" cy="132"></circle><circle r="4" cx="178" cy="203"></circle><circle r="-2" cx="743" cy="416"></circle><circle r="4" cx="369" cy="506"></circle><circle r="5" cx="716" cy="299"></circle><circle r="8" cx="399" cy="287"></circle><circle r="9" cx="219" cy="490"></circle><circle r="4" cx="926" cy="452"></circle><circle r="7" cx="911" cy="373"></circle><circle r="5" cx="905" cy="333"></circle><circle r="8" cx="251" cy="147"></circle><circle r="-1" cx="409" cy="311"></circle><circle r="6" cx="649" cy="200"></circle><circle r="2" cx="382" cy="393"></circle><circle r="3" cx="876" cy="373"></circle><circle r="0" cx="292" cy="313"></circle><circle r="4" cx="85" cy="53"></circle><circle r="2" cx="353" cy="56"></circle><circle r="6" cx="489" cy="485"></circle><circle r="-1" cx="450" cy="415"></circle><circle r="2" cx="803" cy="527"></circle><circle r="8" cx="216" cy="295"></circle><circle r="0" cx="357" cy="85"></circle><circle r="0" cx="928" cy="478"></circle><circle r="-2" cx="769" cy="284"></circle><circle r="6" cx="440" cy="263"></circle><circle r="8" cx="891" cy="66"></circle><circle r="9" cx="202" cy="336"></circle><circle r="3" cx="73" cy="159"></circle><circle r="1" cx="560" cy="17"></circle><circle r="8" cx="898" cy="209"></circle><circle r="0" cx="33" cy="454"></circle><circle r="0" cx="842" cy="204"></circle><circle r="2" cx="729" cy="381"></circle><circle r="8" cx="553" cy="487"></circle><circle r="8" cx="730" cy="442"></circle><circle r="-1" cx="185" cy="427"></circle><circle r="3" cx="151" cy="234"></circle><circle r="6" cx="330" cy="163"></circle><circle r="3" cx="702" cy="103"></circle><circle r="6" cx="539" cy="257"></circle><circle r="9" cx="80" cy="357"></circle><circle r="8" cx="721" cy="218"></circle><circle r="6" cx="98" cy="331"></circle><circle r="-2" cx="661" cy="156"></circle><circle r="1" cx="143" cy="84"></circle><circle r="-1" cx="801" cy="92"></circle><circle r="4" cx="867" cy="224"></circle><circle r="7" cx="828" cy="323"></circle><circle r="-1" cx="670" cy="512"></circle><circle r="2" cx="270" cy="70"></circle><circle r="8" cx="522" cy="397"></circle><circle r="-2" cx="653" cy="270"></circle><circle r="6" cx="105" cy="280"></circle><circle r="-1" cx="912" cy="161"></circle><circle r="1" cx="231" cy="29"></circle><circle r="5" cx="133" cy="360"></circle><circle r="9" cx="358" cy="167"></circle><circle r="-1" cx="538" cy="180"></circle><circle r="-1" cx="645" cy="108"></circle><circle r="-2" cx="883" cy="160"></circle><circle r="0" cx="80" cy="484"></circle><circle r="4" cx="457" cy="44"></circle><circle r="1" cx="112" cy="439"></circle><circle r="-2" cx="27" cy="273"></circle><circle r="4" cx="881" cy="16"></circle><circle r="4" cx="340" cy="328"></circle><circle r="9" cx="550" cy="119"></circle><circle r="0" cx="917" cy="101"></circle><circle r="9" cx="818" cy="234"></circle><circle r="-1" cx="316" cy="118"></circle><circle r="2" cx="922" cy="63"></circle><circle r="4" cx="944" cy="417"></circle><circle r="2" cx="863" cy="294"></circle><circle r="9" cx="616" cy="188"></circle><circle r="4" cx="229" cy="378"></circle><circle r="9" cx="545" cy="375"></circle><circle r="9" cx="891" cy="234"></circle><circle r="5" cx="535" cy="524"></circle><circle r="-1" cx="525" cy="480"></circle><circle r="5" cx="80" cy="450"></circle><circle r="9" cx="332" cy="284"></circle><circle r="4" cx="598" cy="491"></circle><circle r="9" cx="145" cy="302"></circle><circle r="3" cx="501" cy="283"></circle><circle r="7" cx="323" cy="47"></circle><circle r="2" cx="214" cy="451"></circle><circle r="6" cx="825" cy="362"></circle><circle r="8" cx="27" cy="201"></circle><circle r="7" cx="263" cy="188"></circle><circle r="4" cx="287" cy="141"></circle><circle r="5" cx="818" cy="124"></circle><circle r="6" cx="549" cy="452"></circle><circle r="0" cx="443" cy="453"></circle><circle r="1" cx="621" cy="335"></circle><circle r="8" cx="28" cy="26"></circle><circle r="1" cx="675" cy="301"></circle><circle r="8" cx="593" cy="337"></circle><circle r="0" cx="627" cy="17"></circle><circle r="5" cx="157" cy="13"></circle><circle r="6" cx="322" cy="490"></circle><circle r="6" cx="194" cy="90"></circle><circle r="8" cx="326" cy="427"></circle><circle r="-1" cx="933" cy="338"></circle><circle r="5" cx="204" cy="363"></circle><circle r="2" cx="796" cy="302"></circle><circle r="8" cx="547" cy="151"></circle><circle r="-2" cx="123" cy="175"></circle><circle r="6" cx="359" cy="415"></circle><circle r="1" cx="865" cy="67"></circle><circle r="-2" cx="322" cy="235"></circle><circle r="6" cx="797" cy="493"></circle><circle r="9" cx="599" cy="44"></circle><circle r="-1" cx="120" cy="239"></circle><circle r="8" cx="756" cy="473"></circle><circle r="0" cx="605" cy="298"></circle><circle r="2" cx="367" cy="344"></circle><circle r="5" cx="295" cy="40"></circle><circle r="8" cx="142" cy="157"></circle><circle r="2" cx="238" cy="507"></circle><circle r="4" cx="570" cy="363"></circle><circle r="4" cx="238" cy="206"></circle><circle r="4" cx="486" cy="146"></circle><circle r="4" cx="609" cy="388"></circle><circle r="-2" cx="883" cy="92"></circle><circle r="-2" cx="156" cy="132"></circle><circle r="-2" cx="631" cy="471"></circle><circle r="6" cx="649" cy="391"></circle><circle r="9" cx="770" cy="431"></circle><circle r="7" cx="88" cy="255"></circle><circle r="9" cx="636" cy="170"></circle><circle r="6" cx="536" cy="208"></circle><circle r="1" cx="59" cy="96"></circle><circle r="3" cx="749" cy="258"></circle><circle r="7" cx="564" cy="245"></circle><circle r="6" cx="455" cy="526"></circle><circle r="-2" cx="24" cy="428"></circle><circle r="5" cx="475" cy="369"></circle><circle r="9" cx="597" cy="109"></circle><circle r="-2" cx="14" cy="61"></circle><circle r="7" cx="503" cy="51"></circle><circle r="7" cx="936" cy="519"></circle><circle r="9" cx="167" cy="44"></circle><circle r="9" cx="797" cy="386"></circle><circle r="-2" cx="662" cy="15"></circle><circle r="-1" cx="81" cy="189"></circle><circle r="5" cx="640" cy="42"></circle><circle r="2" cx="305" cy="458"></circle><circle r="9" cx="628" cy="278"></circle><circle r="3" cx="717" cy="75"></circle><circle r="6" cx="753" cy="205"></circle><circle r="8" cx="944" cy="87"></circle><circle r="3" cx="421" cy="423"></circle><circle r="1" cx="459" cy="206"></circle><circle r="9" cx="942" cy="245"></circle><circle r="9" cx="425" cy="515"></circle><circle r="8" cx="691" cy="151"></circle><circle r="5" cx="863" cy="264"></circle><circle r="4" cx="497" cy="454"></circle><circle r="5" cx="452" cy="322"></circle><circle r="8" cx="416" cy="29"></circle><circle r="8" cx="534" cy="302"></circle><circle r="0" cx="484" cy="14"></circle><circle r="9" cx="680" cy="477"></circle><circle r="5" cx="525" cy="108"></circle><circle r="-1" cx="276" cy="279"></circle><circle r="-2" cx="832" cy="257"></circle><circle r="9" cx="694" cy="247"></circle><circle r="9" cx="564" cy="527"></circle><circle r="5" cx="798" cy="18"></circle><circle r="7" cx="264" cy="366"></circle><circle r="3" cx="54" cy="430"></circle><circle r="6" cx="256" cy="298"></circle><circle r="8" cx="377" cy="148"></circle><circle r="0" cx="503" cy="376"></circle><circle r="7" cx="381" cy="68"></circle><circle r="8" cx="295" cy="93"></circle><circle r="6" cx="548" cy="64"></circle><circle r="0" cx="525" cy="354"></circle><circle r="9" cx="328" cy="14"></circle><circle r="3" cx="64" cy="326"></circle><circle r="4" cx="85" cy="107"></circle><circle r="8" cx="553" cy="422"></circle><circle r="9" cx="767" cy="99"></circle><circle r="2" cx="779" cy="67"></circle><circle r="2" cx="64" cy="29"></circle><circle r="-1" cx="290" cy="405"></circle><circle r="-1" cx="599" cy="18"></circle><circle r="6" cx="377" cy="318"></circle><circle r="0" cx="57" cy="464"></circle><circle r="4" cx="430" cy="137"></circle><circle r="2" cx="582" cy="465"></circle><circle r="7" cx="59" cy="270"></circle><circle r="-1" cx="411" cy="174"></circle><circle r="8" cx="658" cy="445"></circle><circle r="1" cx="816" cy="196"></circle><circle r="6" cx="693" cy="324"></circle><circle r="3" cx="255" cy="527"></circle><circle r="9" cx="826" cy="390"></circle><circle r="9" cx="854" cy="18"></circle><circle r="-1" cx="108" cy="525"></circle><circle r="9" cx="353" cy="23"></circle><circle r="1" cx="647" cy="355"></circle><circle r="4" cx="608" cy="134"></circle><circle r="9" cx="468" cy="125"></circle><circle r="1" cx="581" cy="387"></circle><circle r="6" cx="232" cy="61"></circle><circle r="6" cx="566" cy="180"></circle><circle r="-1" cx="155" cy="413"></circle><circle r="3" cx="791" cy="268"></circle><circle r="4" cx="733" cy="103"></circle><circle r="2" cx="69" cy="296"></circle><circle r="-2" cx="936" cy="280"></circle><circle r="4" cx="354" cy="389"></circle><circle r="4" cx="416" cy="83"></circle><circle r="7" cx="322" cy="347"></circle><circle r="8" cx="482" cy="68"></circle><circle r="6" cx="458" cy="492"></circle><circle r="0" cx="348" cy="257"></circle><circle r="-2" cx="302" cy="287"></circle><circle r="1" cx="443" cy="292"></circle><circle r="9" cx="613" cy="420"></circle><circle r="8" cx="184" cy="390"></circle><circle r="1" cx="856" cy="455"></circle><circle r="2" cx="943" cy="125"></circle><circle r="7" cx="108" cy="381"></circle><circle r="5" cx="453" cy="13"></circle><circle r="-2" cx="581" cy="73"></circle><circle r="8" cx="476" cy="231"></circle><circle r="8" cx="388" cy="220"></circle><circle r="5" cx="111" cy="468"></circle><circle r="8" cx="480" cy="318"></circle><circle r="9" cx="842" cy="525"></circle><circle r="-1" cx="564" cy="293"></circle><circle r="9" cx="192" cy="32"></circle><circle r="9" cx="138" cy="445"></circle><circle r="1" cx="92" cy="228"></circle><circle r="5" cx="465" cy="255"></circle><circle r="-1" cx="171" cy="519"></circle><circle r="2" cx="710" cy="426"></circle><circle r="-1" cx="945" cy="362"></circle><circle r="8" cx="224" cy="143"></circle><circle r="0" cx="798" cy="423"></circle><circle r="5" cx="888" cy="315"></circle><circle r="3" cx="227" cy="423"></circle><circle r="5" cx="893" cy="393"></circle><circle r="5" cx="733" cy="525"></circle><circle r="0" cx="691" cy="66"></circle><circle r="3" cx="266" cy="454"></circle><circle r="-1" cx="60" cy="376"></circle><circle r="4" cx="115" cy="101"></circle><circle r="5" cx="55" cy="124"></circle><circle r="6" cx="60" cy="524"></circle><circle r="8" cx="304" cy="68"></circle><circle r="7" cx="722" cy="334"></circle><circle r="9" cx="648" cy="527"></circle><circle r="6" cx="794" cy="212"></circle><circle r="4" cx="699" cy="16"></circle><circle r="8" cx="923" cy="222"></circle><circle r="5" cx="291" cy="15"></circle><circle r="-1" cx="743" cy="285"></circle><circle r="6" cx="55" cy="208"></circle><circle r="1" cx="240" cy="243"></circle><circle r="-2" cx="640" cy="80"></circle><circle r="7" cx="643" cy="233"></circle><circle r="-1" cx="167" cy="74"></circle><circle r="6" cx="220" cy="86"></circle><circle r="7" cx="322" cy="308"></circle><circle r="4" cx="810" cy="63"></circle><circle r="2" cx="208" cy="199"></circle><circle r="4" cx="150" cy="206"></circle><circle r="1" cx="349" cy="138"></circle><circle r="8" cx="15" cy="475"></circle><circle r="-2" cx="685" cy="198"></circle><circle r="0" cx="682" cy="271"></circle><circle r="9" cx="303" cy="166"></circle><circle r="0" cx="792" cy="121"></circle><circle r="4" cx="524" cy="234"></circle><circle r="8" cx="172" cy="288"></circle><circle r="4" cx="947" cy="55"></circle><circle r="4" cx="591" cy="525"></circle><circle r="8" cx="745" cy="230"></circle><circle r="-1" cx="126" cy="14"></circle><circle r="9" cx="190" cy="462"></circle><circle r="3" cx="901" cy="525"></circle><circle r="3" cx="723" cy="249"></circle><circle r="3" cx="468" cy="465"></circle><circle r="-1" cx="469" cy="343"></circle><circle r="4" cx="772" cy="494"></circle><circle r="-2" cx="210" cy="14"></circle><circle r="8" cx="398" cy="260"></circle><circle r="2" cx="527" cy="328"></circle><circle r="-1" cx="191" cy="180"></circle><circle r="8" cx="576" cy="126"></circle><circle r="0" cx="275" cy="164"></circle><circle r="4" cx="890" cy="483"></circle><circle r="5" cx="169" cy="158"></circle></g></svg>