<svg width="14" height="16" viewBox="0 0 14 16" fill="white" xmlns="http://www.w3.org/2000/svg">
<path opacity="0.3" d="M8 13.17L12 10.87V6.24L8 8.57V13.17ZM7 2.25L3.04 4.53L7 6.84L10.96 4.53L7 2.25ZM2 10.87L6 13.17V8.57L2 6.24V10.87Z" fill="white"/>
<path d="M12.7504 3.83327L12.7504 3.83328L12.7542 3.83541C13.2139 4.09493 13.5 4.58664 13.5 5.13V10.87C13.5 11.4134 13.2139 11.9051 12.7542 12.1646L12.7542 12.1646L12.7504 12.1667L7.75044 15.0467L7.74893 15.0476C7.51554 15.1831 7.26221 15.25 7 15.25C6.73779 15.25 6.48446 15.1831 6.25107 15.0476L6.24956 15.0467L1.24956 12.1667L1.24957 12.1667L1.2458 12.1646C0.786074 11.9051 0.5 11.4134 0.5 10.87V5.13C0.5 4.58817 0.785108 4.09343 1.25006 3.82298C1.2504 3.82278 1.25073 3.82259 1.25107 3.82239L6.24891 0.95364L6.24891 0.953646L6.25107 0.952394C6.48446 0.816875 6.73779 0.75 7 0.75C7.26221 0.75 7.51554 0.816875 7.74893 0.952397L7.75044 0.953266L12.7504 3.83327ZM5.75076 13.6035L6.5 14.0343V13.17V8.57V8.28261L6.25167 8.13795L2.25167 5.80795L1.5 5.37011V6.24V10.87V11.1593L1.75076 11.3035L5.75076 13.6035ZM6.74806 7.27189L7 7.41885L7.25194 7.27189L11.2119 4.96189L11.9572 4.52717L11.2095 4.09669L7.24948 1.81669L7 1.67305L6.75052 1.81669L2.79052 4.09669L2.04284 4.52717L2.78806 4.96189L6.74806 7.27189ZM12.2492 11.3035L12.5 11.1593V10.87V6.24V5.37011L11.7483 5.80795L7.74833 8.13795L7.5 8.28261V8.57V13.17V14.0343L8.24924 13.6035L12.2492 11.3035Z" fill="black"/>
<path d="M12.7504 3.83327L12.7504 3.83328L12.7542 3.83541C13.2139 4.09493 13.5 4.58664 13.5 5.13V10.87C13.5 11.4134 13.2139 11.9051 12.7542 12.1646L12.7542 12.1646L12.7504 12.1667L7.75044 15.0467L7.74893 15.0476C7.51554 15.1831 7.26221 15.25 7 15.25C6.73779 15.25 6.48446 15.1831 6.25107 15.0476L6.24956 15.0467L1.24956 12.1667L1.24957 12.1667L1.2458 12.1646C0.786074 11.9051 0.5 11.4134 0.5 10.87V5.13C0.5 4.58817 0.785108 4.09343 1.25006 3.82298C1.2504 3.82278 1.25073 3.82259 1.25107 3.82239L6.24891 0.95364L6.24891 0.953646L6.25107 0.952394C6.48446 0.816875 6.73779 0.75 7 0.75C7.26221 0.75 7.51554 0.816875 7.74893 0.952397L7.75044 0.953266L12.7504 3.83327ZM5.75076 13.6035L6.5 14.0343V13.17V8.57V8.28261L6.25167 8.13795L2.25167 5.80795L1.5 5.37011V6.24V10.87V11.1593L1.75076 11.3035L5.75076 13.6035ZM6.74806 7.27189L7 7.41885L7.25194 7.27189L11.2119 4.96189L11.9572 4.52717L11.2095 4.09669L7.24948 1.81669L7 1.67305L6.75052 1.81669L2.79052 4.09669L2.04284 4.52717L2.78806 4.96189L6.74806 7.27189ZM12.2492 11.3035L12.5 11.1593V10.87V6.24V5.37011L11.7483 5.80795L7.74833 8.13795L7.5 8.28261V8.57V13.17V14.0343L8.24924 13.6035L12.2492 11.3035Z" stroke="black"/>
<path d="M12.7504 3.83327L12.7504 3.83328L12.7542 3.83541C13.2139 4.09493 13.5 4.58664 13.5 5.13V10.87C13.5 11.4134 13.2139 11.9051 12.7542 12.1646L12.7542 12.1646L12.7504 12.1667L7.75044 15.0467L7.74893 15.0476C7.51554 15.1831 7.26221 15.25 7 15.25C6.73779 15.25 6.48446 15.1831 6.25107 15.0476L6.24956 15.0467L1.24956 12.1667L1.24957 12.1667L1.2458 12.1646C0.786074 11.9051 0.5 11.4134 0.5 10.87V5.13C0.5 4.58817 0.785108 4.09343 1.25006 3.82298C1.2504 3.82278 1.25073 3.82259 1.25107 3.82239L6.24891 0.95364L6.24891 0.953646L6.25107 0.952394C6.48446 0.816875 6.73779 0.75 7 0.75C7.26221 0.75 7.51554 0.816875 7.74893 0.952397L7.75044 0.953266L12.7504 3.83327ZM5.75076 13.6035L6.5 14.0343V13.17V8.57V8.28261L6.25167 8.13795L2.25167 5.80795L1.5 5.37011V6.24V10.87V11.1593L1.75076 11.3035L5.75076 13.6035ZM6.74806 7.27189L7 7.41885L7.25194 7.27189L11.2119 4.96189L11.9572 4.52717L11.2095 4.09669L7.24948 1.81669L7 1.67305L6.75052 1.81669L2.79052 4.09669L2.04284 4.52717L2.78806 4.96189L6.74806 7.27189ZM12.2492 11.3035L12.5 11.1593V10.87V6.24V5.37011L11.7483 5.80795L7.74833 8.13795L7.5 8.28261V8.57V13.17V14.0343L8.24924 13.6035L12.2492 11.3035Z" stroke="black" stroke-opacity="0.2"/>
</svg>
